<?xml version="1.0" encoding="UTF-8"?><svg id="Layer_2" xmlns="http://www.w3.org/2000/svg" viewBox="0 0 1000 1000.6219"><defs><style>.cls-1{fill:#fff;}</style></defs><g id="Layer_1-2"><path class="cls-1" d="m772.3036,533.4016c-32.3022-.1017-64.2198,6.4336-93.813,19.1078-8.7358-34.2965-8.8299-70.2268-.2757-104.5667,29.6737,12.7371,61.6866,19.3111,94.0886,19.2193,102.6997.0998,193.9997-65.3732,226.8489-162.6777,2.5736-7.6297-.8822-15.9878-8.0925-19.572-10.1996-5.0224-20.744-9.3122-31.553-12.8369-120.723-39.3666-250.1222,22.3749-296.5772,138.6259-31.1103-18.6728-56.9875-44.9232-75.213-76.2968,4.5062-1.7964,8.961-3.7224,13.352-5.7901,119.6897-56.3622,171.0268-199.0804,114.6647-318.7701-3.6224-7.6531-12.4115-11.369-20.4252-8.6354-9.539,3.2473-18.8637,7.0933-27.9183,11.5151-114.1327,55.7367-164.1124,190.1757-116.5261,306.0183-33.5239,8.3245-68.5668,8.4172-102.1334.2709,2.0417-4.9611,3.9189-9.9899,5.6236-15.0798C496.3509,178.5401,428.7446,42.8436,303.3513.8469c-8.0025-2.6434-16.7218,1.0791-20.3477,8.6872-4.5386,9.588-8.4351,19.4671-11.6636,29.572-38.641,120.9409,23.8839,249.9552,140.4174,295.6768-18.2257,31.2397-44.0508,57.374-75.0746,75.97-2.1542-5.358-4.4977-10.6396-7.0352-15.8309-58.0887-118.8454-201.5222-168.0984-320.3676-110.0097-7.4537,3.6989-11.0477,12.3203-8.4286,20.2184,33.0417,96.9361,124.1261,162.0839,226.5387,162.0313,32.41.1575,64.4451-6.3485,94.1559-19.0216,8.495,34.309,8.3689,70.1937-.371,104.4467-29.5849-12.6688-61.4921-19.2044-93.7849-19.1078-101.9926.0179-192.7814,64.6358-226.2026,160.9972-2.7379,7.9735.8856,16.7383,8.4545,20.451,32.6641,15.972,68.5585,24.2335,104.9184,24.1482,98.0573.158,185.6657-59.5319,221.9314-149.5281,31.1634,18.6426,57.0992,44.8809,75.379,76.2601-5.0205,1.9722-9.976,4.1096-14.8545,6.4177-119.562,56.5659-170.6303,199.3457-114.0645,318.9076,2.7781,5.8016,8.6409,9.4922,15.0733,9.4887,1.7932.0092,3.5755-.2791,5.2744-.8533,10.092-3.3791,19.9473-7.4274,29.5005-12.1179,114.0011-55.9731,163.6681-190.528,115.7788-306.244,33.6481-8.192,68.7846-8.1028,102.3912.2604-11.9147,28.848-18.0474,59.8104-17.9518,91.1234-.0472,102.5068,65.21,193.6548,162.2641,226.6422,1.7335.5809,3.5494.8778,5.3777.879,6.4501-.0107,12.3175-3.7345,15.0733-9.5663,4.292-9.1142,8.0048-18.49,11.1162-28.0716,39.2441-120.8544-22.7693-250.2713-139.2317-296.5003,18.2951-31.5603,44.3263-57.9465,75.6345-76.6679,36.2386,89.9973,123.8265,149.708,221.8809,149.5703,36.3841.0695,72.2947-8.2467,104.9441-24.3034,7.5513-3.7018,11.1648-12.4471,8.4287-20.3994-33.43-96.3511-124.2167-160.9572-226.2026-160.9713Zm-82.4094-119.5948c47.5642-107.8986,173.5919-156.8092,281.4904-109.245-31.7106,82.322-110.8627,136.5978-199.081,136.5128-29.6871.1045-59.0613-6.0629-86.1995-18.0983,1.1922-3.0854,2.4559-6.1427,3.7901-9.1695Zm5.7761-385.0627c.8695,2.0571,1.7067,4.1277,2.5113,6.2111,42.485,110.013-12.2572,233.637-122.2702,276.1221-11.2024-26.3217-16.9376-54.6458-16.8572-83.2521-.0245-88.2306,54.2821-167.3676,136.6162-199.081Zm-392.655-.362c2.5573.9727,5.0958,1.9943,7.6138,3.0646,108.5357,46.1285,159.1268,171.5085,112.9983,280.0442-2.5573-.9727-5.0958-1.9943-7.6138-3.0646-108.5357-46.1285-159.1268-171.5085-112.9983-280.0442Zm-75.625,412.7442c-88.2092.0556-167.3463-54.2098-199.081-136.5128h.0517c3.0059-1.3243,6.042-2.5791,9.1058-3.7633,109.9877-42.5108,233.6122,12.19,276.123,122.1778-27.1381,12.0354-56.5124,18.2028-86.1995,18.0983Zm82.541,144.1281c-47.3142,107.9929-173.2155,157.1826-281.2084,109.8683v-.0517c32.0149-81.7372,110.8065-135.5403,198.5898-135.6078,29.5575-.0609,58.7962,6.1058,85.8117,18.0982-1.0142,2.5848-2.0788,5.1496-3.1931,7.693Zm-6.9161,386.9787c-1.0726-2.5237-2.0966-5.0678-3.0711-7.631-41.9098-110.2182,13.4651-233.5422,123.6832-275.4519,1.0726,2.5237,2.0965,5.0678,3.0711,7.631,41.9098,110.2181-13.4651,233.5422-123.6832,275.4519Zm392.6552-.3619c-82.3437-31.7013-136.6553-110.8459-136.6162-199.0811-.0804-28.6063,5.6548-56.9304,16.8572-83.2521,2.0998.8107,4.1867,1.6544,6.2598,2.531,108.6071,45.9234,159.4224,171.1951,113.4991,279.8023Zm-133.1031-314.3539l-.2812-.0908-.1168.2386c-20.5088-5.5627-41.6664-8.3746-62.9169-8.357h0c-20.8998-.0132-41.7099,2.7168-61.9005,8.1129l-.1249-.253-.2383.0762c-21.4834-38.741-53.2167-70.819-91.7242-92.7191l.0491-.1495-.2207-.1147c11.6019-41.7823,11.7015-85.9212.2914-127.7545l.2137-.1116-.0881-.2718c38.398-21.9596,70.0315-54.0351,91.4572-92.7331l.26.0831.1234-.2475c40.8973,10.839,83.9216,10.7462,124.7715-.2663l.1124.2295.325-.1044c21.4296,38.7837,53.1121,70.9248,91.5826,92.9105l-.0459.1416.2499.1302c-11.4327,41.8401-11.3595,85.9884.207,127.7892l-.1725.0872.1058.323c-38.6075,21.9836-70.4094,54.1791-91.919,93.0515Zm400.487,40.7816c-109.7327,43.0084-233.5539-11.0823-276.5623-120.815,27.0067-11.9204,56.2138-18.0419,85.7342-17.969,87.7968.0087,166.629,53.7877,198.6674,135.5302-2.5913,1.1364-5.2048,2.2212-7.8392,3.2538Z"/></g></svg>